<svg xmlns="http://www.w3.org/2000/svg" version="1.1" xmlns:xlink="http://www.w3.org/1999/xlink" xmlns:svgjs="http://svgjs.dev/svgjs" width="1500" height="1500" viewBox="0 0 1500 1500"><rect width="1500" height="1500" fill="#ffffff"></rect><g transform="matrix(0.6666666666666666,0,0,0.6666666666666666,249.39393939393938,569.0480924088896)"><svg viewBox="0 0 396 143" data-background-color="#ffffff" preserveAspectRatio="xMidYMid meet" height="541" width="1500" xmlns="http://www.w3.org/2000/svg" xmlns:xlink="http://www.w3.org/1999/xlink"><g id="tight-bounds" transform="matrix(1,0,0,1,0.2400000000000091,0.24525726117042268)"><svg viewBox="0 0 395.52 142.50948547765915" height="142.50948547765915" width="395.52"><g><svg viewBox="0 0 546.8204684119047 197.02443265077142" height="142.50948547765915" width="395.52"><g transform="matrix(1,0,0,1,151.30046841190472,27.229860084151483)"><svg viewBox="0 0 395.52 142.56471248246845" height="142.56471248246845" width="395.52"><g id="textblocktransform"><svg viewBox="0 0 395.52 142.56471248246845" height="142.56471248246845" width="395.52" id="textblock"><g><svg viewBox="0 0 395.52 142.56471248246845" height="142.56471248246845" width="395.52"><g transform="matrix(1,0,0,1,0,0)"><svg width="395.52" viewBox="46.1 -35.2 213.9 74.1" height="142.56471248246845" data-palette-color="#336791"><svg></svg><svg></svg><g class="wordmark-text-0" data-fill-palette-color="primary" id="text-0"><path transform="translate(43.2,0)" d="M15.2 0.35c-2.333 0-4.433-0.41-6.3-1.23-1.867-0.813-3.333-1.97-4.4-3.47-1.067-1.5-1.6-3.25-1.6-5.25v0h6.1c0.133 1.5 0.727 2.733 1.78 3.7 1.047 0.967 2.52 1.45 4.42 1.45v0c1.967 0 3.5-0.477 4.6-1.43 1.1-0.947 1.65-2.17 1.65-3.67v0c0-1.167-0.34-2.117-1.02-2.85-0.687-0.733-1.537-1.3-2.55-1.7-1.02-0.4-2.43-0.833-4.23-1.3v0c-2.267-0.6-4.107-1.21-5.52-1.83-1.42-0.613-2.63-1.57-3.63-2.87-1-1.3-1.5-3.033-1.5-5.2v0c0-2 0.5-3.75 1.5-5.25 1-1.5 2.4-2.65 4.2-3.45 1.8-0.8 3.883-1.2 6.25-1.2v0c3.367 0 6.127 0.84 8.28 2.52 2.147 1.687 3.337 3.997 3.57 6.93v0h-6.3c-0.1-1.267-0.7-2.35-1.8-3.25-1.1-0.9-2.55-1.35-4.35-1.35v0c-1.633 0-2.967 0.417-4 1.25-1.033 0.833-1.55 2.033-1.55 3.6v0c0 1.067 0.327 1.94 0.98 2.62 0.647 0.687 1.47 1.23 2.47 1.63 1 0.4 2.367 0.833 4.1 1.3v0c2.3 0.633 4.177 1.267 5.63 1.9 1.447 0.633 2.68 1.607 3.7 2.92 1.013 1.32 1.52 3.08 1.52 5.28v0c0 1.767-0.473 3.433-1.42 5-0.953 1.567-2.337 2.827-4.15 3.78-1.82 0.947-3.963 1.42-6.43 1.42zM32.15-34.75h24.25v4.65h-9.25v30.1h-5.7v-30.1h-9.3zM62.1-34.75h5.7v22.15c0 2.633 0.693 4.617 2.08 5.95 1.38 1.333 3.303 2 5.77 2v0c2.5 0 4.443-0.667 5.83-2 1.38-1.333 2.07-3.317 2.07-5.95v0-22.15h5.7v22.05c0 2.833-0.617 5.233-1.85 7.2-1.233 1.967-2.883 3.433-4.95 4.4-2.067 0.967-4.35 1.45-6.85 1.45v0c-2.5 0-4.773-0.483-6.82-1.45-2.053-0.967-3.68-2.433-4.88-4.4-1.2-1.967-1.8-4.367-1.8-7.2v0zM108-34.75c3.7 0 6.943 0.707 9.73 2.12 2.78 1.42 4.93 3.453 6.45 6.1 1.513 2.653 2.27 5.747 2.27 9.28v0c0 3.533-0.757 6.6-2.27 9.2-1.52 2.6-3.67 4.59-6.45 5.97-2.787 1.387-6.03 2.08-9.73 2.08v0h-11.35v-34.75zM108-4.65c4.067 0 7.183-1.1 9.35-3.3 2.167-2.2 3.25-5.3 3.25-9.3v0c0-4.033-1.083-7.183-3.25-9.45-2.167-2.267-5.283-3.4-9.35-3.4v0h-5.65v25.45zM151.3-30.15h-13.5v10.2h12v4.65h-12v10.65h13.5v4.65h-19.2v-34.8h19.2zM186.85-34.8v34.8h-5.7l-17.15-25.95v25.95h-5.7v-34.8h5.7l17.15 25.9v-25.9zM192.55-34.75h24.25v4.65h-9.25v30.1h-5.7v-30.1h-9.3z" fill="#336791" fill-rule="nonzero" stroke="none" stroke-width="1" stroke-linecap="butt" stroke-linejoin="miter" stroke-miterlimit="10" stroke-dasharray="" stroke-dashoffset="0" font-family="none" font-weight="none" font-size="none" text-anchor="none" style="mix-blend-mode: normal" data-fill-palette-color="primary" opacity="1"></path><path transform="translate(75.08,38.55)" d="M1.95-34.75h24.25v4.65h-9.25v30.1h-5.7v-30.1h-9.3zM55.4 0l-2.5-7.1h-14.55l-2.5 7.1h-5.95l12.45-34.8h6.6l12.45 34.8zM39.95-11.75h11.35l-5.65-16.15zM78.25 0.35c-2.333 0-4.433-0.41-6.3-1.23-1.867-0.813-3.333-1.97-4.4-3.47-1.067-1.5-1.6-3.25-1.6-5.25v0h6.1c0.133 1.5 0.727 2.733 1.78 3.7 1.047 0.967 2.52 1.45 4.42 1.45v0c1.967 0 3.5-0.477 4.6-1.43 1.1-0.947 1.65-2.17 1.65-3.67v0c0-1.167-0.34-2.117-1.02-2.85-0.687-0.733-1.537-1.3-2.55-1.7-1.02-0.4-2.43-0.833-4.23-1.3v0c-2.267-0.6-4.107-1.21-5.52-1.83-1.42-0.613-2.63-1.57-3.63-2.87-1-1.3-1.5-3.033-1.5-5.2v0c0-2 0.5-3.75 1.5-5.25 1-1.5 2.4-2.65 4.2-3.45 1.8-0.8 3.883-1.2 6.25-1.2v0c3.367 0 6.127 0.84 8.28 2.52 2.147 1.687 3.337 3.997 3.57 6.93v0h-6.3c-0.1-1.267-0.7-2.35-1.8-3.25-1.1-0.9-2.55-1.35-4.35-1.35v0c-1.633 0-2.967 0.417-4 1.25-1.033 0.833-1.55 2.033-1.55 3.6v0c0 1.067 0.327 1.94 0.98 2.62 0.647 0.687 1.47 1.23 2.47 1.63 1 0.4 2.367 0.833 4.1 1.3v0c2.3 0.633 4.177 1.267 5.63 1.9 1.447 0.633 2.68 1.607 3.7 2.92 1.013 1.32 1.52 3.08 1.52 5.28v0c0 1.767-0.473 3.433-1.42 5-0.953 1.567-2.337 2.827-4.15 3.78-1.82 0.947-3.963 1.42-6.43 1.42zM123.6 0h-7.45l-13.45-15.55v15.55h-5.7v-34.75h5.7v15.85l13.5-15.85h7.15l-15.1 17.4zM140.1 0.35c-2.333 0-4.433-0.41-6.3-1.23-1.867-0.813-3.333-1.97-4.4-3.47-1.067-1.5-1.6-3.25-1.6-5.25v0h6.1c0.133 1.5 0.727 2.733 1.78 3.7 1.047 0.967 2.52 1.45 4.42 1.45v0c1.967 0 3.5-0.477 4.6-1.43 1.1-0.947 1.65-2.17 1.65-3.67v0c0-1.167-0.34-2.117-1.02-2.85-0.687-0.733-1.537-1.3-2.55-1.7-1.02-0.4-2.43-0.833-4.23-1.3v0c-2.267-0.6-4.107-1.21-5.52-1.83-1.42-0.613-2.63-1.57-3.63-2.87-1-1.3-1.5-3.033-1.5-5.2v0c0-2 0.5-3.75 1.5-5.25 1-1.5 2.4-2.65 4.2-3.45 1.8-0.8 3.883-1.2 6.25-1.2v0c3.367 0 6.127 0.84 8.28 2.52 2.147 1.687 3.337 3.997 3.57 6.93v0h-6.3c-0.1-1.267-0.7-2.35-1.8-3.25-1.1-0.9-2.55-1.35-4.35-1.35v0c-1.633 0-2.967 0.417-4 1.25-1.033 0.833-1.55 2.033-1.55 3.6v0c0 1.067 0.327 1.94 0.98 2.62 0.647 0.687 1.47 1.23 2.47 1.63 1 0.4 2.367 0.833 4.1 1.3v0c2.3 0.633 4.177 1.267 5.63 1.9 1.447 0.633 2.68 1.607 3.7 2.92 1.013 1.32 1.52 3.08 1.52 5.28v0c0 1.767-0.473 3.433-1.42 5-0.953 1.567-2.337 2.827-4.15 3.78-1.82 0.947-3.963 1.42-6.43 1.42z" fill="#336791" fill-rule="nonzero" stroke="none" stroke-width="1" stroke-linecap="butt" stroke-linejoin="miter" stroke-miterlimit="10" stroke-dasharray="" stroke-dashoffset="0" font-family="none" font-weight="none" font-size="none" text-anchor="none" style="mix-blend-mode: normal" data-fill-palette-color="primary" opacity="1"></path></g></svg></g></svg></g></svg></g></svg></g><g><svg viewBox="0 0 135.78199103024974 197.02443265077142" height="197.02443265077142" width="135.78199103024974"><g><svg xmlns="http://www.w3.org/2000/svg" xmlns:xlink="http://www.w3.org/1999/xlink" version="1.1" x="0" y="0" viewBox="18.987999999999996 5 62.024 89.999" enable-background="new 0 0 100 100" xml:space="preserve" height="197.02443265077142" width="135.78199103024974" class="icon-icon-0" data-fill-palette-color="accent" id="icon-0"><g fill="#336791" data-fill-palette-color="accent"><path fill="none" d="M59.897 28.423l-3.575-0.454c1.962-1.133 0.924-3.607 0.441-4.438-0.144-0.245-0.244-0.389-0.244-0.389-0.024 0.02-0.055 0.041-0.082 0.061-5.584 4.02-10.153 5.546-10.153 5.546-2.522 0.995-6.748 1.695-6.747 1.695 0.693 7.537 5.114 13.35 10.464 13.35 3.51 0 6.62-2.501 8.54-6.349 1.057-2.115 1.752-4.638 1.957-7.375 0.072-0.498 0.111-1.007 0.119-1.526l-0.656-0.121H59.897z"></path><path fill="none" d="M28.182 91.218h43.636c1.628 0 2.945-1.304 2.945-2.912l5.949-27.156c0-1.606-1.318-2.912-2.945-2.912h-5.151c-0.073-0.161-0.149-0.32-0.231-0.479l0 0c0.082 0.159 0.158 0.319 0.231 0.482H54.238h-2.896-3.126-2.792c-0.107-0.16-0.214-0.32-0.321-0.482 0.106 0.161 0.214 0.32 0.32 0.482H27.515c0.073-0.162 0.151-0.323 0.23-0.482h-0.001c-0.079 0.159-0.157 0.319-0.23 0.482h-5.283c-1.627 0-2.946 1.303-2.946 2.911l5.952 27.154C25.237 89.912 26.554 91.218 28.182 91.218zM50 73.411c0.873 0 1.581 0.707 1.581 1.581 0 0.873-0.708 1.581-1.581 1.581-0.874 0-1.581-0.708-1.581-1.581C48.419 74.118 49.127 73.411 50 73.411z"></path><path fill="none" d="M50.004 55.044l3.654-5.942c3.229-0.73 5.57-2.4 5.896-4.388-2.074-0.051-3.842 0.158-4.313 0.932l1.402-2.922c-1.902 1.845-4.186 2.922-6.642 2.922-2.514 0-4.846-1.128-6.777-3.055l2.016 4.491c-0.47-0.772-2.288-1.165-4.431-1.351 0.826 1.529 2.88 2.768 5.539 3.371L50.004 55.044z"></path><circle cx="50" cy="74.992" r="1.6" fill="#336791" data-fill-palette-color="accent"></circle><path d="M74.975 92.454H25.025c-0.702 0-1.272 0.568-1.272 1.273 0 0.701 0.57 1.272 1.272 1.272h49.949c0.703 0 1.271-0.571 1.271-1.272C76.247 93.022 75.678 92.454 74.975 92.454z" fill="#336791" data-fill-palette-color="accent"></path><path d="M27.913 91.702h44.175c1.643 0 2.976-1.332 2.976-2.975l5.948-27.996c0-1.643-1.33-2.975-2.976-2.975h-4.09c-0.001-7.068-4.646-10.78-11.052-12.798 2.714 0.304 5.093 0.77 5.093 0.77-5.413-2.973-5.271-13.651-5.271-13.651 0.316-6.936-1.011-11.416-2.911-14.318l-0.083-0.822 3.356-1.942 0.747-0.431 3.122-1.805c0.196-0.198 0.196-0.513 0.001-0.709L50.352 5.147c-0.193-0.196-0.51-0.196-0.705 0L33.05 12.051c-0.195 0.195-0.195 0.511 0 0.709l1.237 0.714-0.079 1.092c-0.423 0.072-0.747 0.44-0.747 0.887 0 0.4 0.261 0.738 0.624 0.855L33.36 26.447l0.998 2.997 1.001-2.997-0.725-10.139c0.362-0.119 0.624-0.455 0.624-0.855 0-0.447-0.325-0.815-0.749-0.887l-0.072-1.004 1.732 1.003 0.07 0.041 3.283 1.899-0.224 2.844c-1.397 2.878-2.272 6.954-2.007 12.729 0 0 0.139 10.677-5.273 13.651 0 0 1.457-0.099 3.404-0.135-5.517 2.464-9.362 5.729-9.362 12.164h-4.096c-1.644 0-2.976 1.332-2.976 2.974l5.949 27.996C24.937 90.37 26.27 91.702 27.913 91.702zM40.81 45.731c2.143 0.186 3.961 0.579 4.431 1.351l-2.016-4.491c1.931 1.927 4.263 3.055 6.777 3.055 2.457 0 4.74-1.077 6.642-2.922l-1.402 2.922c0.471-0.774 2.238-0.983 4.313-0.932-0.326 1.988-2.668 3.658-5.896 4.388l-3.654 5.942-3.655-5.942C43.69 48.499 41.636 47.26 40.81 45.731zM60.498 30.07c-0.205 2.737-0.9 5.26-1.957 7.375-1.92 3.848-5.029 6.349-8.54 6.349-5.35 0-9.771-5.813-10.464-13.35-0.001 0 4.225-0.7 6.747-1.695 0 0 4.569-1.526 10.153-5.546 0.027-0.02 0.058-0.041 0.082-0.061 0 0 0.101 0.144 0.244 0.389 0.482 0.831 1.521 3.305-0.441 4.438l3.575 0.454h0.063l0.656 0.121C60.609 29.063 60.57 29.572 60.498 30.07zM22.231 58.24h5.283c0.073-0.163 0.151-0.323 0.23-0.482h0.001c-0.079 0.159-0.157 0.32-0.23 0.482h17.907c-0.106-0.162-0.214-0.321-0.32-0.482 0.107 0.162 0.214 0.322 0.321 0.482h2.792 3.126 2.896 18.378c-0.073-0.163-0.149-0.323-0.231-0.482l0 0c0.082 0.159 0.158 0.318 0.231 0.479h5.151c1.627 0 2.945 1.306 2.945 2.912l-5.949 27.156c0 1.608-1.317 2.912-2.945 2.912H28.182c-1.628 0-2.945-1.306-2.945-2.912l-5.952-27.154C19.285 59.543 20.604 58.24 22.231 58.24z" fill="#336791" data-fill-palette-color="accent"></path></g></svg></g></svg></g></svg></g><defs></defs></svg><rect width="395.52" height="142.50948547765915" fill="none" stroke="none" visibility="hidden"></rect></g></svg></g></svg>